<?xml version="1.0" encoding="UTF-8" standalone="no"?>
<!-- Created with Inkscape (http://www.inkscape.org/) -->

<svg
   xmlns:dc="http://purl.org/dc/elements/1.1/"
   xmlns:cc="http://creativecommons.org/ns#"
   xmlns:rdf="http://www.w3.org/1999/02/22-rdf-syntax-ns#"
   xmlns:svg="http://www.w3.org/2000/svg"
   xmlns="http://www.w3.org/2000/svg"
   version="1.1"
   width="300"
   height="63.402409"
   id="svg3459">
  <defs
     id="defs3461">
    <clipPath
       id="clipPath352">
      <path
         d="m 4.961,656.423 136.771,0 0,33.61 -136.771,0 0,-33.61 z"
         id="path354" />
    </clipPath>
  </defs>
  <metadata
     id="metadata3464">
    <rdf:RDF>
      <cc:Work
         rdf:about="">
        <dc:format>image/svg+xml</dc:format>
        <dc:type
           rdf:resource="http://purl.org/dc/dcmitype/StillImage" />
        <dc:title></dc:title>
      </cc:Work>
    </rdf:RDF>
  </metadata>
  <g
     transform="translate(-187.78034,-250.12715)"
     id="layer1">
    <g
       transform="matrix(2.5295911,0,0,-2.5295911,165.15044,1986.948)"
       id="g348">
      <g
         clip-path="url(#clipPath352)"
         id="g350">
        <g
           transform="translate(115.8337,679.6273)"
           id="g356">
          <path
             d="m 0,0 c -0.157,-0.074 -0.407,-0.154 -0.677,-0.235 0.075,-0.005 0.15,-0.012 0.224,-0.02 0.098,-0.008 0.191,-0.015 0.278,-0.022 0.347,0.073 0.705,0.126 1.101,0.167 0,-0.001 0.068,0.007 0.068,0.007 -0.006,-0.003 -0.071,-0.022 -0.071,-0.02 -0.375,-0.073 -0.674,-0.118 -0.955,-0.165 0.079,-0.006 0.154,-0.011 0.223,-0.016 0.228,0.027 0.463,0.045 0.713,0.055 0,-0.002 0.083,0.002 0.083,0.002 C 0.979,-0.248 0.902,-0.261 0.902,-0.26 0.717,-0.282 0.548,-0.3 0.389,-0.318 1.507,-0.394 1.239,-0.35 2.787,-0.663 2.103,-0.582 1.582,-0.48 0.871,-0.462 0.716,-0.461 0.567,-0.464 0.422,-0.47 c 0.973,-0.073 1.92,-0.392 2.71,-1.029 0.174,-0.137 0.332,-0.29 0.477,-0.456 l 0.012,0.011 c -0.149,0.159 -0.31,0.308 -0.489,0.445 0.155,-0.126 0.314,-0.282 0.47,-0.463 L 3.593,-1.971 3.617,-1.996 c 0.037,-0.038 0.073,-0.077 0.109,-0.115 0.768,-0.962 1.462,-2.52 1.546,-4.155 -0.141,0.892 -0.385,1.629 -0.86,2.424 -0.338,0.568 -0.77,1.248 -1.341,1.609 L 3.094,-2.21 3.07,-2.185 c -0.584,0.611 -1.231,0.937 -2.041,1.152 -0.403,0.107 -0.777,0.163 -1.151,0.177 0.3,-0.007 0.604,-0.037 0.928,-0.091 l 0.034,-0.006 0.012,0.069 -0.034,0.006 c -0.176,0.032 -0.345,0.057 -0.512,0.075 l 0.003,0.07 -0.016,0 0.001,0.05 -0.035,0.001 C -0.188,-0.674 -0.6,-0.702 -1.023,-0.775 -1.162,-0.793 -1.3,-0.815 -1.441,-0.843 -2.262,-1.007 -2.928,-1.254 -3.629,-1.692 -3.661,-1.711 -3.693,-1.73 -3.725,-1.75 -4.419,-2.184 -4.943,-2.647 -5.342,-3.379 -5.405,-3.495 -5.46,-3.614 -5.508,-3.736 c 0.031,0.21 0.076,0.417 0.145,0.62 0.309,0.731 0.734,1.303 1.341,1.812 0.027,0.022 0.143,0.123 0.059,-0.085 0,0 -0.053,-0.075 -0.056,-0.072 -0.425,-0.538 -0.751,-0.874 -1.057,-1.439 0.4,0.623 1.032,1.174 1.791,1.594 0.231,0.156 0.474,0.302 0.61,0.334 -0.025,-0.017 -0.067,-0.046 -0.065,-0.064 0.095,0.042 0.192,0.082 0.289,0.119 0.18,0.096 0.365,0.184 0.559,0.269 -0.014,0.012 -0.036,0.024 -0.068,0.034 -0.014,0.117 0.199,0.225 0.278,0.262 0.284,0.111 0.587,0.136 0.888,0.124 C -0.537,-0.146 -0.277,-0.072 0,0 M 3.821,-2.215 C 4.087,-2.566 4.308,-2.954 4.51,-3.339 4.984,-4.34 5.197,-5.159 5.287,-6.119 5.294,-6.235 5.299,-6.347 5.301,-6.458 5.32,-6.595 5.334,-6.732 5.342,-6.87 5.348,-6.972 5.351,-7.071 5.353,-7.168 5.381,-6.837 5.38,-6.491 5.356,-6.114 5.326,-5.801 5.284,-5.51 5.227,-5.229 L 5.164,-4.995 C 5.135,-4.884 5.086,-4.728 5.071,-4.61 4.943,-4.183 4.773,-3.765 4.552,-3.319 4.498,-3.218 4.444,-3.118 4.388,-3.02 4.213,-2.765 4.039,-2.51 3.984,-2.401 3.931,-2.338 3.876,-2.276 3.821,-2.215 M 5.22,-7.617 C 5.132,-8.111 4.969,-8.589 4.709,-9.113 4.659,-9.203 4.608,-9.291 4.556,-9.375 4.515,-9.497 4.47,-9.613 4.42,-9.725 c 0.125,0.178 0.244,0.368 0.359,0.576 0.144,0.291 0.258,0.568 0.347,0.842 0.05,0.229 0.08,0.457 0.094,0.69 m -0.973,-2.21 c -0.395,-0.522 -0.846,-0.921 -1.392,-1.276 -0.097,-0.082 -0.197,-0.161 -0.3,-0.236 -0.087,-0.069 -0.177,-0.135 -0.269,-0.199 0.646,0.351 1.174,0.721 1.629,1.196 0.12,0.16 0.231,0.331 0.332,0.515 m -1.354,-1.244 c 0.589,0.402 1.05,0.854 1.404,1.338 0.081,0.156 0.156,0.322 0.224,0.498 l 0.022,0.057 c 0.093,0.311 0.188,0.622 0.252,0.941 0.046,0.291 0.062,0.585 0.061,0.88 l 0,0.034 0.066,0.004 0.004,-0.033 C 4.96,-7.648 4.923,-7.959 4.864,-8.25 4.827,-8.488 4.769,-8.72 4.696,-8.95 4.669,-9.034 4.641,-9.118 4.61,-9.201 L 4.592,-9.26 C 4.587,-9.275 4.583,-9.291 4.578,-9.306 c 0.356,0.609 0.561,1.257 0.65,1.913 0.004,0.295 -0.017,0.6 -0.058,0.928 -0.121,0.957 -0.375,1.732 -0.855,2.57 C 4.12,-3.553 3.91,-3.186 3.629,-2.906 3.545,-2.822 3.457,-2.742 3.371,-2.659 3.24,-2.533 3.116,-2.402 2.995,-2.267 L 2.836,-2.091 2.928,-2.147 C 2.899,-2.119 2.869,-2.092 2.839,-2.066 L 2.805,-2.108 2.752,-2.064 c -0.539,0.442 -1.085,0.679 -1.76,0.839 -0.34,0.08 -0.657,0.124 -0.971,0.138 l 0,-0.003 c 0.254,-0.014 0.51,-0.048 0.776,-0.102 L 0.831,-1.199 0.817,-1.268 0.783,-1.261 c -0.734,0.149 -1.393,0.134 -2.127,0.009 -0.762,-0.13 -1.381,-0.347 -2.035,-0.726 -0.045,-0.027 -0.09,-0.055 -0.135,-0.083 -0.643,-0.407 -1.115,-0.82 -1.48,-1.498 -0.529,-0.985 -0.394,-2.553 -0.533,-3.662 -0.06,-0.481 -0.14,-0.899 -0.321,-1.311 -0.061,-0.144 -0.134,-0.286 -0.223,-0.431 -0.164,-0.268 -0.336,-0.456 -0.586,-0.646 -0.295,-0.224 -0.575,-0.346 -0.925,-0.458 -0.058,-0.019 -0.1,-0.041 -0.145,-0.083 -0.046,-0.041 -0.074,-0.082 -0.096,-0.138 -0.023,-0.057 -0.03,-0.103 -0.027,-0.164 0.004,-0.061 0.017,-0.108 0.047,-0.161 0.016,-0.028 0.032,-0.056 0.049,-0.082 0.199,-0.184 0.462,-0.364 0.775,-0.534 0.109,-0.061 0.222,-0.118 0.34,-0.176 0.862,-0.403 1.662,-0.63 2.594,-0.812 1.68,-0.287 3.217,-0.336 4.772,0.084 0.447,0.159 0.887,0.366 1.32,0.63 1.019,0.622 1.736,1.294 2.134,2.444 l 0.012,0.034 c 0.081,0.345 0.175,0.7 0.219,1.051 0.034,0.41 0.001,0.788 -0.055,1.194 L 4.352,-6.746 4.42,-6.735 4.426,-6.769 C 4.503,-7.181 4.535,-7.564 4.482,-7.981 4.477,-8.044 4.469,-8.107 4.462,-8.17 4.428,-8.473 4.359,-8.757 4.26,-9.045 L 4.252,-9.08 C 4.235,-9.152 4.216,-9.223 4.194,-9.291 L 4.227,-9.307 4.213,-9.338 C 4.139,-9.508 4.058,-9.669 3.967,-9.822 3.786,-10.15 3.548,-10.43 3.271,-10.703 3.151,-10.835 3.025,-10.956 2.893,-11.071 m -3.047,10.07 C 0.201,-1.006 0.557,-1.05 0.94,-1.14 0.557,-1.054 0.201,-1.013 -0.154,-1.01 l 0,0.009 z"
             id="path358"
             style="fill:#feca00;fill-opacity:1;fill-rule:evenodd;stroke:none" />
        </g>
        <g
           transform="translate(127.1371,678.8173)"
           id="g360">
          <path
             d="m 0,0 c -0.153,0.299 -0.423,0.513 -0.79,0.487 -1.365,-0.097 -3.571,-1.462 -4.211,-2.833 -0.333,-0.714 0.002,-1.187 0.725,-1.135 0.692,0.051 1.897,0.552 2.656,0.744 C 0.034,-2.319 0.999,-1.954 0,0"
             id="path362"
             style="fill:#94c118;fill-opacity:1;fill-rule:evenodd;stroke:none" />
        </g>
        <g
           transform="translate(106.5498,681.1591)"
           id="g364">
          <path
             d="M 0,0 C 1.015,-1.004 2.442,-2.431 3.955,-2.492 4.342,-2.507 3.884,-1.699 3.346,-0.303 2.889,0.883 2.806,1.491 1.965,2.487 0.977,3.656 0.148,2.891 -0.33,1.741 -0.521,1.28 -0.358,0.354 0,0"
             id="path366"
             style="fill:#00505a;fill-opacity:1;fill-rule:evenodd;stroke:none" />
        </g>
        <g
           transform="translate(110.4289,664.3424)"
           id="g368">
          <path
             d="M 0,0 C 0.15,1.037 0.292,2.511 -1.425,2.991 -1.83,3.105 -2.289,2.279 -2.441,2.056 -2.84,1.467 -3.297,0.865 -3.699,0.283 c -0.277,-0.4 -1.051,-1.788 -0.567,-2.251 0.534,-0.511 2.774,0.574 3.21,0.866 C -0.739,-0.889 -0.052,-0.352 0,0"
             id="path370"
             style="fill:#a30054;fill-opacity:1;fill-rule:evenodd;stroke:none" />
        </g>
        <g
           transform="translate(121.4369,663.6349)"
           id="g372">
          <path
             d="M 0,0 C -0.071,0.583 -0.824,2.94 -1.181,3.185 -1.942,3.708 -4.197,2.984 -4.065,2.541 -3.54,0.792 0.641,-5.248 0,0"
             id="path374"
             style="fill:#ec6200;fill-opacity:1;fill-rule:evenodd;stroke:none" />
        </g>
        <g
           transform="translate(117.2372,680.2109)"
           id="g376">
          <path
             d="M 0,0 C 0.695,-0.102 2.16,3.496 2.257,4.217 2.424,5.467 1.266,6.32 -0.169,6.39 -1.53,6.456 -1.784,0.263 0,0"
             id="path378"
             style="fill:#00b2b9;fill-opacity:1;fill-rule:evenodd;stroke:none" />
        </g>
        <g
           transform="translate(51.9564,667.5773)"
           id="g380">
          <path
             d="m 0,0 0.613,0 0.128,0 c 0.016,0 0.029,-0.005 0.038,-0.015 0.009,-0.01 0.013,-0.023 0.013,-0.037 l 0,-0.613 C 0.792,-0.679 0.788,-0.691 0.779,-0.701 0.77,-0.711 0.757,-0.716 0.741,-0.716 l -0.076,0 0,-1.603 0.076,0 c 0.016,0 0.029,-0.005 0.038,-0.015 0.009,-0.01 0.013,-0.023 0.013,-0.037 l 0,-0.613 C 0.792,-2.998 0.788,-3.011 0.779,-3.021 0.77,-3.031 0.757,-3.036 0.741,-3.036 l -0.128,0 -0.613,0 -0.127,0 c -0.014,0 -0.027,0.005 -0.037,0.015 -0.01,0.011 -0.015,0.023 -0.015,0.037 l 0,0.613 c 0,0.014 0.005,0.027 0.015,0.037 0.01,0.01 0.022,0.015 0.037,0.015 l 0.076,0 0,1.603 -0.076,0 c -0.014,0 -0.027,0.005 -0.037,0.015 -0.01,0.01 -0.015,0.022 -0.015,0.036 l 0,0.613 c 0,0.015 0.005,0.027 0.015,0.037 C -0.154,-0.005 -0.142,0 -0.127,0 L 0,0 z m 1.157,-2.984 0,0.307 0,2.319 0,0.306 c 0,0.015 0.005,0.027 0.015,0.037 C 1.182,-0.005 1.194,0 1.208,0 l 0.307,0 0.288,0 0.152,0 c 0.02,0 0.035,-0.007 0.043,-0.021 l 0.091,-0.122 1.387,-1.848 0,1.633 0,0.306 c 0,0.015 0.005,0.027 0.015,0.037 C 3.501,-0.005 3.514,0 3.528,0 l 0.613,0 c 0.014,0 0.026,-0.005 0.036,-0.015 0.01,-0.01 0.016,-0.023 0.016,-0.037 l 0,-0.306 0,-2.319 0,-0.307 c 0,-0.014 -0.006,-0.027 -0.016,-0.037 -0.01,-0.01 -0.022,-0.015 -0.036,-0.015 l -0.307,0 -0.288,0 -0.152,0 -0.003,0 c -0.018,0 -0.031,0.007 -0.039,0.021 l -0.091,0.122 -1.388,1.849 0,-1.633 0,-0.307 c 0,-0.014 -0.005,-0.026 -0.015,-0.037 -0.01,-0.01 -0.023,-0.015 -0.037,-0.015 l -0.613,0 c -0.014,0 -0.026,0.005 -0.036,0.015 -0.01,0.011 -0.015,0.023 -0.015,0.037 m 3.4,0 0,0.307 0,2.319 0,0.306 c 0,0.015 0.005,0.027 0.015,0.037 C 4.582,-0.005 4.594,0 4.608,0 l 0.307,0 0.289,0 0.151,0 c 0.02,0 0.035,-0.007 0.043,-0.021 l 0.091,-0.122 1.387,-1.848 0,1.633 0,0.306 c 0,0.015 0.005,0.027 0.015,0.037 C 6.902,-0.005 6.914,0 6.928,0 l 0.613,0 c 0.014,0 0.026,-0.005 0.036,-0.015 0.01,-0.01 0.016,-0.023 0.016,-0.037 l 0,-0.306 0,-2.319 0,-0.307 c 0,-0.014 -0.006,-0.027 -0.016,-0.037 -0.01,-0.01 -0.022,-0.015 -0.036,-0.015 l -0.307,0 -0.288,0 -0.152,0 -0.003,0 c -0.018,0 -0.031,0.007 -0.039,0.021 l -0.091,0.122 -1.388,1.849 0,-1.633 0,-0.307 c 0,-0.014 -0.005,-0.026 -0.015,-0.037 -0.01,-0.01 -0.023,-0.015 -0.036,-0.015 l -0.614,0 c -0.014,0 -0.026,0.005 -0.036,0.015 -0.01,0.011 -0.015,0.023 -0.015,0.037 m 4.994,2.347 C 9.435,-0.637 9.324,-0.66 9.217,-0.704 9.164,-0.727 9.114,-0.753 9.067,-0.785 9.019,-0.816 8.975,-0.852 8.934,-0.892 8.856,-0.971 8.793,-1.064 8.748,-1.169 8.702,-1.274 8.679,-1.387 8.679,-1.509 c 0,-0.113 0.023,-0.223 0.067,-0.331 0.022,-0.052 0.049,-0.102 0.08,-0.15 0.032,-0.047 0.068,-0.091 0.108,-0.132 0.079,-0.079 0.172,-0.141 0.277,-0.187 0.105,-0.045 0.218,-0.068 0.34,-0.068 l 0,-0.719 c -0.11,0 -0.215,0.01 -0.316,0.03 -0.101,0.02 -0.199,0.05 -0.294,0.088 -0.197,0.079 -0.369,0.194 -0.517,0.346 -0.145,0.144 -0.26,0.312 -0.343,0.504 -0.082,0.192 -0.124,0.399 -0.124,0.619 0,0.215 0.04,0.418 0.121,0.61 0.079,0.197 0.194,0.369 0.346,0.517 0.146,0.145 0.315,0.26 0.507,0.343 0.192,0.082 0.399,0.124 0.62,0.124 l 0,-0.722 z m 0.558,-1.536 c 0.025,0.022 0.047,0.044 0.069,0.066 0.021,0.022 0.041,0.046 0.062,0.07 0.018,0.027 0.035,0.053 0.051,0.079 0.016,0.026 0.032,0.054 0.046,0.082 0.028,0.061 0.049,0.12 0.061,0.179 0.014,0.057 0.021,0.119 0.021,0.188 0,0.116 -0.022,0.227 -0.067,0.334 -0.022,0.053 -0.049,0.103 -0.08,0.15 -0.032,0.048 -0.068,0.092 -0.108,0.133 -0.079,0.078 -0.171,0.141 -0.275,0.186 -0.104,0.046 -0.217,0.069 -0.338,0.069 l 0,0.722 c 0.212,0 0.415,-0.04 0.607,-0.121 0.194,-0.079 0.367,-0.195 0.519,-0.346 0.144,-0.146 0.257,-0.315 0.34,-0.507 0.083,-0.192 0.125,-0.399 0.125,-0.62 0,-0.117 -0.013,-0.231 -0.037,-0.343 -0.014,-0.056 -0.03,-0.112 -0.048,-0.167 -0.019,-0.054 -0.04,-0.108 -0.064,-0.161 -0.049,-0.103 -0.109,-0.202 -0.18,-0.297 -0.001,0 -0.002,-0.001 -0.002,-0.003 C 10.774,-2.523 10.736,-2.565 10.698,-2.608 10.66,-2.65 10.618,-2.69 10.574,-2.726 10.537,-2.756 10.5,-2.785 10.463,-2.811 10.425,-2.837 10.387,-2.863 10.346,-2.887 10.261,-2.933 10.177,-2.972 10.094,-3.002 10.05,-3.018 10.005,-3.032 9.961,-3.043 9.916,-3.054 9.87,-3.064 9.824,-3.072 9.778,-3.08 9.732,-3.086 9.687,-3.09 9.643,-3.094 9.597,-3.096 9.551,-3.096 l 0,0.719 c 0.026,0 0.052,0.002 0.077,0.005 0.025,0.003 0.05,0.006 0.074,0.01 0.025,0.004 0.049,0.009 0.073,0.016 0.024,0.005 0.049,0.013 0.073,0.021 0.045,0.018 0.09,0.039 0.137,0.063 0.022,0.015 0.043,0.029 0.064,0.043 0.02,0.014 0.04,0.029 0.06,0.046 m 1.916,2.134 0.586,-2.062 0.589,2.065 0.049,-0.016 -0.049,0.016 C 13.206,-0.012 13.222,0 13.249,0 l 0.637,0 c 0.016,0 0.029,-0.005 0.038,-0.015 0.009,-0.01 0.014,-0.022 0.014,-0.037 0,-0.008 -0.001,-0.013 -0.003,-0.015 L 13.161,-2.793 13.1,-2.999 13.051,-2.984 13.1,-2.999 c -0.006,-0.025 -0.022,-0.037 -0.049,-0.037 l -0.88,0 c -0.024,0 -0.041,0.013 -0.049,0.04 l -0.057,0.203 -0.777,2.729 0,-0.003 c -0.005,0.014 -0.003,0.028 0.002,0.04 0.007,0.012 0.017,0.02 0.031,0.024 C 11.325,-0.001 11.33,0 11.336,0 l 0.638,0 C 12,0 12.017,-0.013 12.025,-0.039 m 4.666,-0.677 -1.672,0 0,-0.444 1.093,0 c 0.014,0 0.026,-0.005 0.036,-0.015 0.01,-0.01 0.015,-0.022 0.015,-0.036 l 0,-0.613 c 0,-0.015 -0.005,-0.027 -0.015,-0.037 -0.01,-0.01 -0.022,-0.015 -0.036,-0.015 l -1.093,0 0,-0.443 1.672,0 c 0.015,0 0.026,-0.005 0.035,-0.015 0.009,-0.011 0.014,-0.023 0.014,-0.037 l 0,-0.613 c 0,-0.014 -0.005,-0.026 -0.014,-0.037 -0.009,-0.01 -0.02,-0.015 -0.035,-0.015 l -2.031,0 -0.306,0 c -0.014,0 -0.027,0.005 -0.037,0.015 -0.01,0.011 -0.015,0.023 -0.015,0.037 l 0,0.307 0,2.319 0,0.306 c 0,0.015 0.005,0.027 0.015,0.037 C 14.327,-0.005 14.34,0 14.354,0 l 0.306,0 2.031,0 c 0.015,0 0.026,-0.005 0.035,-0.015 0.009,-0.01 0.014,-0.022 0.014,-0.037 l 0,-0.613 c 0,-0.014 -0.005,-0.026 -0.014,-0.036 -0.009,-0.01 -0.02,-0.015 -0.035,-0.015 m 1.94,-0.003 -0.807,0 0,-0.738 0.807,0 c 0.051,0 0.097,0.009 0.14,0.027 0.042,0.016 0.083,0.043 0.121,0.079 0.037,0.039 0.063,0.079 0.079,0.122 0.019,0.042 0.028,0.089 0.028,0.139 0,0.053 -0.009,0.1 -0.028,0.143 -0.018,0.045 -0.044,0.084 -0.079,0.118 -0.018,0.016 -0.037,0.032 -0.057,0.046 -0.021,0.014 -0.042,0.026 -0.064,0.036 -0.043,0.018 -0.089,0.028 -0.14,0.028 m 0.632,-1.257 0.464,-0.987 c 0.006,-0.012 0.007,-0.025 0.002,-0.038 -0.005,-0.013 -0.014,-0.023 -0.026,-0.029 -0.012,-0.004 -0.019,-0.006 -0.021,-0.006 l -0.003,0 -0.677,0 c -0.025,0 -0.041,0.011 -0.049,0.034 l -0.385,0.825 -0.744,0 0,-0.807 c 0,-0.014 -0.005,-0.026 -0.014,-0.037 -0.009,-0.01 -0.022,-0.015 -0.038,-0.015 l -0.616,0 c -0.014,0 -0.026,0.005 -0.037,0.015 -0.01,0.011 -0.015,0.023 -0.015,0.037 l 0,2.623 0,0.309 c 0,0.015 0.005,0.027 0.015,0.037 C 17.13,-0.005 17.142,0 17.156,0 l 0.309,0 1.166,0 c 0.073,0 0.145,-0.007 0.214,-0.021 0.07,-0.014 0.137,-0.035 0.202,-0.061 0.067,-0.028 0.13,-0.062 0.188,-0.101 0.059,-0.04 0.114,-0.085 0.164,-0.136 0.104,-0.103 0.182,-0.221 0.237,-0.355 0.057,-0.131 0.085,-0.27 0.085,-0.416 0,-0.145 -0.028,-0.284 -0.085,-0.416 -0.028,-0.066 -0.062,-0.129 -0.102,-0.188 -0.039,-0.058 -0.084,-0.113 -0.135,-0.164 -0.02,-0.024 -0.047,-0.049 -0.082,-0.076 -0.01,-0.008 -0.019,-0.015 -0.027,-0.021 -0.008,-0.006 -0.017,-0.013 -0.027,-0.021"
             id="path382"
             style="fill:#a30054;fill-opacity:1;fill-rule:nonzero;stroke:none" />
        </g>
        <g
           transform="translate(73.1592,664.5839)"
           id="g384">
          <path
             d="m 0,0 0,2.939 c 0,0.028 0.014,0.042 0.042,0.042 l 1.479,0 C 1.594,2.981 1.661,2.974 1.724,2.96 1.793,2.948 1.858,2.929 1.919,2.902 1.951,2.888 1.982,2.874 2.013,2.858 2.043,2.843 2.072,2.825 2.101,2.805 2.155,2.769 2.207,2.726 2.256,2.678 2.258,2.678 2.259,2.677 2.259,2.675 2.283,2.652 2.306,2.628 2.327,2.6 2.348,2.573 2.369,2.545 2.389,2.517 2.407,2.488 2.425,2.46 2.441,2.43 2.457,2.401 2.471,2.37 2.483,2.338 2.511,2.271 2.532,2.206 2.544,2.143 2.556,2.077 2.562,2.009 2.562,1.94 2.562,1.871 2.556,1.803 2.544,1.737 2.532,1.672 2.511,1.606 2.483,1.539 2.471,1.509 2.457,1.479 2.441,1.448 2.425,1.418 2.407,1.388 2.389,1.36 2.349,1.301 2.305,1.249 2.259,1.202 2.21,1.154 2.157,1.11 2.101,1.072 2.072,1.054 2.043,1.036 2.013,1.02 1.982,1.004 1.951,0.989 1.919,0.975 1.886,0.962 1.854,0.951 1.823,0.941 1.792,0.931 1.759,0.923 1.724,0.917 1.661,0.903 1.594,0.896 1.521,0.896 l -1.032,0 0,-0.896 c 0,-0.028 -0.015,-0.042 -0.043,-0.042 l -0.404,0 C 0.014,-0.042 0,-0.028 0,0 M 1.63,2.48 C 1.598,2.488 1.561,2.493 1.521,2.493 l -1.032,0 0,-1.109 1.032,0 c 0.018,0 0.036,0.001 0.055,0.003 C 1.594,1.39 1.612,1.393 1.63,1.397 1.646,1.401 1.664,1.405 1.682,1.41 1.7,1.415 1.717,1.421 1.733,1.427 1.75,1.435 1.765,1.443 1.78,1.451 1.795,1.459 1.811,1.468 1.827,1.479 1.844,1.489 1.858,1.499 1.871,1.51 1.885,1.522 1.898,1.534 1.912,1.548 1.925,1.56 1.937,1.574 1.949,1.588 1.961,1.602 1.972,1.616 1.982,1.63 1.993,1.646 2.001,1.663 2.01,1.679 2.018,1.695 2.025,1.711 2.031,1.727 2.039,1.744 2.045,1.76 2.051,1.778 2.056,1.795 2.06,1.813 2.064,1.831 2.07,1.867 2.073,1.904 2.073,1.94 2.073,1.977 2.07,2.012 2.064,2.046 2.06,2.065 2.056,2.082 2.051,2.099 2.046,2.117 2.039,2.133 2.031,2.149 2.025,2.166 2.018,2.182 2.01,2.198 2.001,2.214 1.993,2.23 1.982,2.247 1.964,2.273 1.941,2.3 1.912,2.328 L 1.943,2.359 1.912,2.328 C 1.898,2.343 1.885,2.355 1.871,2.367 1.858,2.378 1.844,2.388 1.827,2.398 1.811,2.409 1.795,2.418 1.78,2.426 1.765,2.434 1.75,2.442 1.733,2.45 1.717,2.458 1.7,2.464 1.682,2.468 1.664,2.472 1.646,2.476 1.63,2.48 M 5.633,0.471 5.63,0.468 5.627,0.465 C 5.591,0.418 5.554,0.377 5.518,0.34 5.498,0.318 5.478,0.297 5.458,0.278 5.439,0.259 5.419,0.24 5.396,0.222 L 5.287,0.14 C 5.253,0.113 5.214,0.089 5.172,0.067 5.125,0.041 5.085,0.019 5.05,0.003 5.028,-0.007 5.007,-0.016 4.986,-0.024 4.966,-0.032 4.945,-0.039 4.923,-0.045 4.9,-0.056 4.879,-0.064 4.857,-0.07 4.836,-0.076 4.814,-0.082 4.792,-0.088 4.77,-0.094 4.748,-0.1 4.725,-0.105 4.703,-0.11 4.681,-0.114 4.659,-0.118 4.612,-0.128 4.567,-0.134 4.522,-0.137 4.5,-0.138 4.477,-0.14 4.454,-0.141 4.43,-0.142 4.408,-0.143 4.385,-0.143 4.28,-0.143 4.178,-0.132 4.079,-0.112 3.973,-0.09 3.876,-0.062 3.787,-0.027 3.69,0.011 3.599,0.06 3.514,0.119 3.472,0.147 3.43,0.178 3.39,0.211 3.349,0.245 3.312,0.279 3.277,0.316 3.13,0.462 3.015,0.632 2.934,0.826 2.896,0.921 2.866,1.019 2.846,1.119 c -0.02,0.1 -0.03,0.203 -0.03,0.308 0,0.051 0.002,0.101 0.007,0.152 C 2.828,1.629 2.836,1.68 2.846,1.73 2.865,1.83 2.894,1.928 2.934,2.025 2.973,2.122 3.021,2.213 3.08,2.298 3.108,2.341 3.139,2.382 3.173,2.421 3.206,2.461 3.241,2.499 3.277,2.535 3.35,2.61 3.429,2.676 3.514,2.732 3.599,2.789 3.689,2.838 3.784,2.878 3.879,2.917 3.977,2.946 4.079,2.966 4.18,2.986 4.282,2.997 4.385,2.997 4.438,2.997 4.49,2.994 4.54,2.989 4.591,2.984 4.641,2.976 4.692,2.966 4.743,2.956 4.793,2.944 4.842,2.93 4.892,2.915 4.94,2.898 4.986,2.878 5.08,2.838 5.171,2.789 5.26,2.732 5.341,2.678 5.42,2.612 5.496,2.535 5.646,2.387 5.76,2.217 5.836,2.025 5.917,1.833 5.958,1.633 5.958,1.427 5.958,1.399 5.956,1.37 5.953,1.342 5.95,1.314 5.949,1.285 5.949,1.257 l 0,-0.003 C 5.945,1.226 5.94,1.198 5.935,1.17 5.93,1.143 5.925,1.115 5.918,1.087 5.906,1.032 5.891,0.977 5.873,0.92 5.857,0.87 5.835,0.817 5.809,0.762 5.797,0.736 5.785,0.711 5.773,0.686 5.76,0.662 5.746,0.638 5.73,0.613 5.714,0.587 5.698,0.562 5.682,0.539 5.665,0.516 5.649,0.493 5.633,0.471 M 5.011,0.534 c 0.012,0.011 0.024,0.021 0.036,0.031 0.012,0.01 0.024,0.02 0.037,0.03 0.03,0.024 0.059,0.051 0.088,0.079 0.024,0.024 0.049,0.055 0.075,0.091 0.023,0.028 0.045,0.06 0.067,0.094 l 0,0.003 C 5.333,0.891 5.351,0.925 5.369,0.966 L 5.408,0.947 5.369,0.966 c 0.018,0.038 0.033,0.075 0.045,0.112 0.007,0.018 0.013,0.037 0.019,0.056 0.006,0.019 0.011,0.038 0.015,0.056 0.004,0.02 0.007,0.04 0.009,0.058 0.002,0.018 0.005,0.037 0.009,0.057 0.002,0.021 0.004,0.041 0.005,0.06 0.001,0.019 0.001,0.04 0.001,0.062 0,0.034 -0.001,0.07 -0.004,0.106 C 5.465,1.57 5.459,1.605 5.451,1.639 5.439,1.708 5.419,1.775 5.39,1.84 5.362,1.909 5.328,1.971 5.29,2.028 5.27,2.056 5.249,2.085 5.228,2.113 5.206,2.141 5.183,2.168 5.157,2.192 l -0.004,0 C 5.101,2.243 5.045,2.288 4.986,2.327 4.928,2.367 4.866,2.4 4.801,2.429 4.67,2.484 4.531,2.511 4.385,2.511 4.351,2.511 4.316,2.509 4.279,2.506 4.243,2.503 4.207,2.498 4.173,2.489 4.108,2.479 4.04,2.459 3.969,2.429 3.937,2.415 3.905,2.399 3.874,2.383 3.842,2.367 3.813,2.349 3.784,2.328 3.756,2.308 3.728,2.288 3.699,2.266 3.671,2.245 3.645,2.221 3.62,2.195 L 3.617,2.192 C 3.569,2.139 3.525,2.084 3.485,2.025 3.446,1.966 3.412,1.905 3.384,1.84 3.329,1.712 3.302,1.575 3.302,1.427 3.302,1.391 3.303,1.354 3.306,1.318 3.309,1.281 3.315,1.246 3.323,1.211 3.335,1.143 3.355,1.076 3.384,1.011 3.412,0.942 3.445,0.879 3.484,0.823 3.504,0.795 3.525,0.766 3.546,0.738 3.567,0.71 3.591,0.683 3.617,0.659 3.672,0.608 3.728,0.563 3.786,0.524 3.844,0.484 3.905,0.45 3.969,0.422 4.099,0.367 4.238,0.34 4.385,0.34 l 0.049,0 c 0.016,0 0.032,0.001 0.048,0.003 0.017,0.002 0.032,0.004 0.048,0.006 0.015,0.002 0.03,0.004 0.047,0.006 0.016,0.004 0.031,0.008 0.045,0.011 0.014,0.003 0.03,0.006 0.046,0.011 L 4.759,0.404 C 4.775,0.41 4.79,0.416 4.803,0.422 4.816,0.428 4.831,0.434 4.847,0.44 4.873,0.452 4.9,0.468 4.929,0.486 4.943,0.494 4.957,0.501 4.97,0.509 4.983,0.516 4.997,0.524 5.011,0.534 m 3.576,2.463 0.407,0 c 0.028,0 0.042,-0.015 0.042,-0.043 l 0,-1.743 C 9.036,1.128 9.028,1.04 9.012,0.947 9.002,0.905 8.99,0.862 8.977,0.82 8.964,0.777 8.949,0.735 8.933,0.692 8.901,0.611 8.859,0.533 8.809,0.458 8.784,0.42 8.758,0.384 8.73,0.351 8.701,0.317 8.671,0.284 8.639,0.252 8.576,0.189 8.507,0.133 8.432,0.082 8.357,0.031 8.279,-0.01 8.198,-0.042 8.158,-0.059 8.116,-0.073 8.074,-0.085 8.032,-0.097 7.988,-0.107 7.943,-0.115 7.858,-0.133 7.77,-0.143 7.679,-0.143 c -0.089,0 -0.177,0.01 -0.264,0.028 -0.045,0.008 -0.088,0.018 -0.13,0.03 C 7.242,-0.073 7.201,-0.059 7.16,-0.042 7.079,-0.01 7.001,0.031 6.926,0.082 6.89,0.108 6.855,0.135 6.82,0.163 6.786,0.19 6.753,0.219 6.723,0.249 6.721,0.251 6.72,0.252 6.72,0.252 6.687,0.284 6.658,0.318 6.63,0.352 6.603,0.387 6.576,0.422 6.55,0.458 6.499,0.533 6.458,0.611 6.425,0.692 6.409,0.735 6.395,0.777 6.381,0.82 6.368,0.862 6.358,0.905 6.35,0.947 6.331,1.034 6.322,1.122 6.322,1.211 l 0,1.743 c 0,0.028 0.014,0.043 0.043,0.043 l 0.407,0 c 0.028,0 0.042,-0.015 0.042,-0.043 l 0,-1.743 C 6.814,1.155 6.82,1.098 6.832,1.041 6.836,1.013 6.843,0.986 6.852,0.959 6.861,0.933 6.871,0.907 6.881,0.88 6.891,0.854 6.903,0.829 6.916,0.805 6.929,0.78 6.944,0.756 6.96,0.732 6.976,0.71 6.993,0.687 7.01,0.665 7.027,0.643 7.047,0.622 7.069,0.601 7.109,0.557 7.153,0.52 7.2,0.492 7.246,0.462 7.296,0.435 7.348,0.413 7.375,0.403 7.401,0.393 7.427,0.384 7.454,0.375 7.481,0.368 7.509,0.364 7.566,0.352 7.623,0.346 7.679,0.346 c 0.059,0 0.116,0.006 0.17,0.018 0.029,0.004 0.056,0.011 0.082,0.02 C 7.957,0.393 7.984,0.403 8.01,0.413 8.063,0.435 8.112,0.462 8.159,0.492 8.183,0.508 8.206,0.525 8.227,0.542 8.249,0.559 8.27,0.579 8.293,0.601 8.331,0.64 8.366,0.683 8.399,0.732 8.415,0.756 8.43,0.78 8.443,0.805 8.456,0.829 8.468,0.854 8.478,0.88 8.49,0.907 8.5,0.933 8.508,0.959 8.516,0.986 8.523,1.013 8.529,1.041 8.533,1.07 8.537,1.098 8.54,1.126 8.543,1.155 8.545,1.183 8.545,1.211 l 0,1.743 c 0,0.028 0.014,0.043 0.042,0.043 M 9.401,0 l 0,2.939 c 0,0.028 0.014,0.042 0.042,0.042 l 1.478,0 c 0.073,0 0.141,-0.007 0.204,-0.021 0.069,-0.012 0.134,-0.031 0.194,-0.058 0.033,-0.014 0.064,-0.028 0.094,-0.044 0.031,-0.015 0.06,-0.033 0.088,-0.053 C 11.53,2.787 11.557,2.767 11.583,2.745 11.61,2.722 11.635,2.699 11.659,2.675 11.684,2.652 11.706,2.628 11.728,2.6 11.749,2.573 11.769,2.545 11.79,2.517 11.808,2.488 11.825,2.46 11.841,2.43 11.858,2.401 11.872,2.37 11.884,2.338 11.912,2.271 11.932,2.206 11.945,2.143 11.957,2.077 11.963,2.009 11.963,1.94 11.963,1.871 11.957,1.803 11.945,1.737 11.932,1.672 11.912,1.606 11.884,1.539 11.872,1.509 11.858,1.479 11.841,1.448 11.825,1.418 11.808,1.388 11.79,1.36 11.769,1.332 11.749,1.305 11.728,1.278 11.706,1.252 11.684,1.228 11.662,1.205 L 11.659,1.202 C 11.653,1.196 11.647,1.19 11.641,1.184 11.635,1.178 11.628,1.172 11.62,1.166 11.614,1.16 11.607,1.154 11.6,1.148 11.593,1.142 11.586,1.135 11.58,1.129 L 11.553,1.111 C 11.549,1.107 11.541,1.101 11.529,1.093 l 0,-0.003 -0.104,-0.073 0.468,-0.996 C 11.897,0.017 11.899,0.01 11.899,0 c 0,-0.028 -0.014,-0.042 -0.042,-0.042 l -0.444,0 c -0.016,0 -0.029,0.008 -0.039,0.024 L 11.413,0 l -0.036,-0.018 -0.431,0.914 -1.057,0 0,-0.896 c 0,-0.028 -0.014,-0.042 -0.042,-0.042 l -0.404,0 C 9.415,-0.042 9.401,-0.028 9.401,0 m 1.63,2.48 c -0.033,0.008 -0.069,0.013 -0.11,0.013 l -1.032,0 0,-1.109 1.032,0 c 0.019,0 0.037,0.001 0.055,0.003 0.018,0.003 0.036,0.006 0.055,0.01 0.016,0.004 0.033,0.008 0.051,0.013 0.018,0.005 0.036,0.011 0.052,0.017 0.016,0.008 0.032,0.016 0.047,0.024 0.015,0.008 0.031,0.017 0.047,0.028 0.016,0.01 0.031,0.02 0.044,0.031 0.013,0.012 0.027,0.024 0.041,0.038 l 0.031,-0.03 -0.031,0.03 c 0.012,0.012 0.024,0.026 0.036,0.04 0.013,0.014 0.024,0.028 0.034,0.042 0.01,0.016 0.019,0.033 0.027,0.049 0.008,0.016 0.015,0.032 0.022,0.048 0.008,0.017 0.014,0.033 0.019,0.051 0.005,0.017 0.01,0.035 0.014,0.053 0.006,0.036 0.009,0.073 0.009,0.109 0,0.037 -0.003,0.072 -0.009,0.106 -0.004,0.019 -0.009,0.036 -0.014,0.053 -0.005,0.018 -0.011,0.034 -0.019,0.05 -0.007,0.017 -0.014,0.033 -0.022,0.049 -0.008,0.016 -0.017,0.032 -0.027,0.049 -0.01,0.014 -0.021,0.028 -0.032,0.042 -0.011,0.014 -0.023,0.027 -0.035,0.039 l -0.003,0 0.031,0.031 -0.031,-0.031 C 11.299,2.343 11.285,2.355 11.272,2.367 11.259,2.378 11.244,2.388 11.228,2.398 11.212,2.409 11.196,2.418 11.181,2.426 11.166,2.434 11.15,2.442 11.134,2.45 11.118,2.458 11.1,2.464 11.082,2.468 11.064,2.472 11.047,2.476 11.031,2.48"
             id="path386"
             style="fill:#a30054;fill-opacity:1;fill-rule:nonzero;stroke:none" />
        </g>
        <g
           transform="translate(88.7315,666.7334)"
           id="g388">
          <path
             d="m 0,0 c -0.02,0.016 -0.04,0.032 -0.059,0.047 -0.019,0.015 -0.04,0.029 -0.062,0.041 -0.049,0.026 -0.096,0.048 -0.14,0.064 -0.022,0.01 -0.046,0.018 -0.071,0.024 -0.026,0.006 -0.05,0.011 -0.075,0.015 -0.046,0.008 -0.098,0.012 -0.155,0.012 -0.117,0 -0.229,-0.022 -0.337,-0.066 C -1.006,0.094 -1.1,0.03 -1.181,-0.055 c -0.081,-0.079 -0.144,-0.171 -0.19,-0.277 -0.045,-0.107 -0.068,-0.221 -0.068,-0.342 0,-0.117 0.022,-0.23 0.067,-0.337 0.042,-0.107 0.106,-0.201 0.191,-0.282 0.079,-0.081 0.172,-0.144 0.278,-0.19 0.106,-0.046 0.22,-0.068 0.341,-0.068 0.057,0 0.109,0.004 0.155,0.012 0.025,0.004 0.049,0.009 0.075,0.015 0.025,0.006 0.049,0.014 0.071,0.024 0.014,0.004 0.028,0.009 0.041,0.015 0.013,0.007 0.027,0.013 0.041,0.019 0.008,0.004 0.016,0.008 0.024,0.013 0.008,0.005 0.017,0.01 0.028,0.014 l 0,0.589 c 0,0.016 0.005,0.029 0.015,0.038 0.01,0.009 0.022,0.014 0.036,0.014 l 0.625,0 c 0.017,0 0.03,-0.005 0.04,-0.014 0.01,-0.009 0.015,-0.022 0.015,-0.038 l 0,-0.777 0,-0.146 c 0,-0.016 -0.007,-0.029 -0.021,-0.039 L 0.471,-1.906 C 0.436,-1.937 0.4,-1.965 0.361,-1.991 0.323,-2.018 0.283,-2.043 0.243,-2.067 0.16,-2.114 0.075,-2.154 -0.012,-2.186 -0.057,-2.2 -0.101,-2.213 -0.146,-2.224 -0.19,-2.235 -0.236,-2.245 -0.282,-2.256 -0.329,-2.264 -0.375,-2.27 -0.422,-2.274 -0.468,-2.278 -0.515,-2.28 -0.562,-2.28 c -0.109,0 -0.215,0.01 -0.317,0.03 -0.102,0.021 -0.202,0.05 -0.299,0.088 -0.198,0.081 -0.372,0.198 -0.522,0.35 -0.146,0.145 -0.261,0.316 -0.345,0.511 -0.084,0.195 -0.125,0.404 -0.125,0.627 0,0.215 0.04,0.42 0.121,0.616 0.081,0.197 0.197,0.371 0.349,0.522 0.146,0.146 0.316,0.261 0.511,0.345 0.196,0.084 0.405,0.126 0.627,0.126 0.047,0 0.094,-0.002 0.14,-0.006 0.047,-0.004 0.093,-0.01 0.14,-0.018 0.093,-0.018 0.183,-0.043 0.27,-0.073 C 0.075,0.804 0.16,0.764 0.243,0.72 0.283,0.695 0.323,0.67 0.361,0.644 0.4,0.617 0.436,0.589 0.471,0.559 L 0.437,0.519 0.471,0.559 C 0.483,0.548 0.49,0.536 0.492,0.522 0.494,0.508 0.49,0.496 0.48,0.486 L 0.477,0.483 0.076,0.006 C 0.066,-0.006 0.054,-0.013 0.039,-0.014 0.025,-0.015 0.013,-0.01 0.003,0 L 0,0 z M 3.707,-0.929 C 3.707,-1.111 3.672,-1.285 3.603,-1.451 3.535,-1.619 3.436,-1.768 3.306,-1.897 3.243,-1.96 3.175,-2.016 3.101,-2.066 3.027,-2.115 2.948,-2.157 2.863,-2.192 2.695,-2.261 2.52,-2.295 2.338,-2.295 c -0.183,0 -0.357,0.034 -0.522,0.103 -0.086,0.035 -0.165,0.077 -0.239,0.126 -0.074,0.05 -0.143,0.106 -0.208,0.169 -0.063,0.064 -0.119,0.134 -0.17,0.208 -0.05,0.073 -0.093,0.153 -0.127,0.238 -0.069,0.166 -0.103,0.34 -0.103,0.522 l 0,1.706 c 0,0.014 0.004,0.027 0.015,0.037 0.01,0.01 0.022,0.015 0.036,0.015 l 0.616,0 c 0.017,0 0.029,-0.005 0.038,-0.015 0.009,-0.01 0.014,-0.023 0.014,-0.037 l 0,-1.706 c 0,-0.085 0.016,-0.168 0.049,-0.249 0.032,-0.077 0.079,-0.147 0.142,-0.209 0.063,-0.063 0.133,-0.111 0.21,-0.143 0.081,-0.033 0.164,-0.049 0.249,-0.049 0.085,0 0.168,0.016 0.249,0.049 0.082,0.034 0.152,0.082 0.209,0.143 0.063,0.062 0.11,0.132 0.143,0.209 0.032,0.081 0.048,0.164 0.048,0.249 l 0,1.706 c 0,0.014 0.005,0.027 0.015,0.037 0.011,0.01 0.023,0.015 0.037,0.015 l 0.616,0 c 0.016,0 0.029,-0.005 0.038,-0.015 0.009,-0.01 0.014,-0.023 0.014,-0.037 l 0,-1.706 z m 2.756,1.054 -1.675,0 0,-0.447 1.095,0 c 0.015,0 0.027,-0.004 0.037,-0.014 0.01,-0.008 0.015,-0.02 0.015,-0.034 l 0,-0.617 C 5.935,-1.001 5.93,-1.013 5.92,-1.023 5.91,-1.033 5.898,-1.038 5.883,-1.038 l -1.095,0 0,-0.443 1.675,0 c 0.014,0 0.027,-0.006 0.037,-0.016 0.01,-0.01 0.015,-0.022 0.015,-0.036 l 0,-0.616 C 6.515,-2.164 6.51,-2.175 6.5,-2.183 6.49,-2.191 6.477,-2.195 6.463,-2.195 l -2.034,0 -0.306,0 c -0.014,0 -0.027,0.004 -0.037,0.012 -0.01,0.008 -0.015,0.019 -0.015,0.034 l 0,0.309 0,2.323 0,0.306 c 0,0.016 0.005,0.029 0.015,0.038 0.01,0.009 0.023,0.014 0.037,0.014 l 0.306,0 0.41,0 0.832,0.304 C 5.683,1.149 5.695,1.148 5.706,1.143 5.717,1.138 5.725,1.13 5.729,1.12 L 5.82,0.865 C 5.822,0.859 5.823,0.851 5.823,0.841 l 0.64,0 C 6.477,0.841 6.49,0.836 6.5,0.827 6.51,0.818 6.515,0.805 6.515,0.789 l 0,-0.613 C 6.515,0.16 6.51,0.147 6.5,0.138 6.49,0.129 6.477,0.125 6.463,0.125 m 1.943,0 -0.807,0 0,-0.738 0.807,0 c 0.051,0 0.097,0.009 0.14,0.027 0.043,0.016 0.083,0.043 0.121,0.079 0.037,0.038 0.063,0.079 0.079,0.122 0.018,0.042 0.028,0.089 0.028,0.139 0,0.053 -0.01,0.1 -0.028,0.143 C 8.728,-0.059 8.702,-0.019 8.667,0.015 8.649,0.031 8.63,0.047 8.61,0.061 8.589,0.075 8.568,0.087 8.546,0.097 8.503,0.115 8.457,0.125 8.406,0.125 M 9.038,-1.132 9.502,-2.119 C 9.508,-2.131 9.509,-2.144 9.504,-2.157 9.499,-2.17 9.49,-2.18 9.478,-2.186 9.466,-2.19 9.459,-2.192 9.457,-2.192 l -0.004,0 -0.676,0 c -0.025,0 -0.041,0.011 -0.049,0.034 l -0.386,0.825 -0.743,0 0,-0.807 c 0,-0.014 -0.005,-0.027 -0.014,-0.037 -0.009,-0.01 -0.022,-0.015 -0.038,-0.015 l -0.616,0 c -0.014,0 -0.027,0.005 -0.037,0.015 -0.01,0.01 -0.015,0.023 -0.015,0.037 l 0,2.623 0,0.309 c 0,0.015 0.005,0.027 0.015,0.037 0.01,0.01 0.023,0.015 0.037,0.015 l 0.31,0 1.165,0 C 8.479,0.844 8.55,0.837 8.62,0.823 8.69,0.808 8.757,0.788 8.822,0.762 8.889,0.734 8.952,0.7 9.01,0.66 9.069,0.621 9.124,0.576 9.174,0.525 9.277,0.422 9.357,0.303 9.411,0.17 9.468,0.038 9.496,-0.1 9.496,-0.246 9.496,-0.392 9.468,-0.53 9.411,-0.662 9.383,-0.729 9.349,-0.791 9.309,-0.85 9.27,-0.909 9.225,-0.963 9.174,-1.014 9.154,-1.038 9.127,-1.064 9.092,-1.09 9.082,-1.098 9.073,-1.105 9.065,-1.111 9.057,-1.117 9.048,-1.124 9.038,-1.132 m 1.014,1.976 0.613,0 0.128,0 c 0.016,0 0.028,-0.005 0.037,-0.015 0.009,-0.01 0.014,-0.022 0.014,-0.037 l 0,-0.613 C 10.844,0.165 10.839,0.153 10.83,0.143 10.821,0.133 10.809,0.128 10.793,0.128 l -0.076,0 0,-1.603 0.076,0 c 0.016,0 0.028,-0.006 0.037,-0.016 0.009,-0.01 0.014,-0.022 0.014,-0.036 l 0,-0.613 c 0,-0.014 -0.005,-0.027 -0.014,-0.037 -0.009,-0.01 -0.021,-0.015 -0.037,-0.015 l -0.128,0 -0.613,0 -0.128,0 c -0.014,0 -0.026,0.005 -0.036,0.015 -0.01,0.01 -0.015,0.023 -0.015,0.037 l 0,0.613 c 0,0.014 0.005,0.026 0.015,0.036 0.01,0.01 0.022,0.016 0.036,0.016 l 0.076,0 0,1.603 -0.076,0 C 9.91,0.128 9.898,0.133 9.888,0.143 9.878,0.153 9.873,0.165 9.873,0.179 l 0,0.613 c 0,0.015 0.005,0.027 0.015,0.037 0.01,0.01 0.022,0.015 0.036,0.015 l 0.128,0 z m 2.683,-0.719 -0.807,0 0,-0.738 0.807,0 c 0.051,0 0.098,0.009 0.14,0.027 0.043,0.016 0.083,0.043 0.122,0.079 0.036,0.038 0.062,0.079 0.078,0.122 0.019,0.042 0.028,0.089 0.028,0.139 0,0.053 -0.009,0.1 -0.028,0.143 -0.018,0.044 -0.044,0.084 -0.078,0.118 -0.019,0.016 -0.038,0.032 -0.058,0.046 -0.02,0.014 -0.042,0.026 -0.064,0.036 -0.042,0.018 -0.089,0.028 -0.14,0.028 m 0.632,-1.257 0.464,-0.987 c 0.006,-0.012 0.007,-0.025 0.002,-0.038 C 13.828,-2.17 13.819,-2.18 13.807,-2.186 13.795,-2.19 13.788,-2.192 13.786,-2.192 l -0.003,0 -0.677,0 c -0.024,0 -0.041,0.011 -0.049,0.034 l -0.385,0.825 -0.744,0 0,-0.807 c 0,-0.014 -0.005,-0.027 -0.014,-0.037 -0.009,-0.01 -0.022,-0.015 -0.038,-0.015 l -0.616,0 c -0.014,0 -0.026,0.005 -0.036,0.015 -0.011,0.01 -0.016,0.023 -0.016,0.037 l 0,2.623 0,0.309 c 0,0.015 0.005,0.027 0.016,0.037 0.01,0.01 0.022,0.015 0.036,0.015 l 0.31,0 1.165,0 c 0.073,0 0.145,-0.007 0.215,-0.021 C 13.019,0.808 13.087,0.788 13.151,0.762 13.218,0.734 13.281,0.7 13.34,0.66 13.398,0.621 13.453,0.576 13.504,0.525 13.607,0.422 13.686,0.303 13.74,0.17 c 0.057,-0.132 0.085,-0.27 0.085,-0.416 0,-0.146 -0.028,-0.284 -0.085,-0.416 -0.028,-0.067 -0.062,-0.129 -0.101,-0.188 -0.04,-0.059 -0.085,-0.113 -0.135,-0.164 -0.021,-0.024 -0.048,-0.05 -0.083,-0.076 -0.01,-0.008 -0.019,-0.015 -0.027,-0.021 -0.008,-0.006 -0.017,-0.013 -0.027,-0.021"
             id="path390"
             style="fill:#a30054;fill-opacity:1;fill-rule:nonzero;stroke:none" />
        </g>
        <g
           transform="translate(93.9594,669.7493)"
           id="g392">
          <path
             d="m 0,0 0,0.87 0,6.578 0,0.87 c 0,0.08 0.065,0.145 0.145,0.145 l 0.87,0 0.823,0 0.427,0 C 2.31,8.464 2.355,8.444 2.384,8.405 l 0,0 0.262,-0.35 3.932,-5.242 0,4.635 0,0.87 c 0,0.08 0.065,0.145 0.145,0.145 l 1.74,0 c 0.08,0 0.145,-0.065 0.145,-0.145 l 0,-0.87 0,-6.578 0,-0.87 c 0,-0.08 -0.065,-0.145 -0.145,-0.145 l -0.87,0 -0.822,0 -0.431,0 0,0 c -0.044,0 -0.087,0.02 -0.116,0.058 l 10e-4,0 -0.263,0.35 -3.931,5.242 0,-4.635 0,-0.87 c 0,-0.08 -0.066,-0.145 -0.145,-0.145 l -1.741,0 C 0.065,-0.145 0,-0.08 0,0 m -5.458,6.679 -0.02,0 c -0.423,0 -0.853,-0.122 -1.27,-0.376 C -7.223,6.014 -7.578,5.586 -7.788,5.029 -7.895,4.742 -7.937,4.466 -7.937,4.221 l 0,-0.021 -0.005,-0.04 0.005,-0.042 0,-0.02 c 0,-0.423 0.122,-0.853 0.376,-1.27 0.289,-0.475 0.717,-0.83 1.276,-1.039 0.287,-0.108 0.56,-0.149 0.807,-0.149 l 0.02,0 0.042,-0.006 0.04,0.006 0.011,0 c 0.614,0 1.192,0.217 1.692,0.689 0.228,0.215 0.339,0.402 0.395,0.499 0.071,0.123 0.172,0.289 0.247,0.509 0.094,0.274 0.133,0.53 0.133,0.757 l 0,0.024 0.006,0.042 -0.006,0.04 0,0.021 c 0,0.425 -0.12,0.853 -0.375,1.271 C -3.561,5.966 -3.99,6.32 -4.547,6.53 -4.834,6.637 -5.112,6.679 -5.355,6.679 l -0.021,0 -0.04,0.005 -0.042,-0.005 z m -0.046,2.108 0.175,0 c 0.671,0 1.355,-0.169 2.042,-0.515 0.256,-0.128 0.534,-0.304 0.811,-0.533 0.296,-0.245 0.52,-0.486 0.679,-0.69 0.175,-0.224 0.313,-0.441 0.421,-0.632 0.119,-0.21 0.244,-0.467 0.346,-0.772 0.163,-0.487 0.24,-0.96 0.24,-1.397 l 0,-0.154 C -0.79,3.352 -0.985,2.608 -1.385,1.882 -1.5,1.672 -1.649,1.459 -1.818,1.25 -2.053,0.96 -2.296,0.718 -2.537,0.534 -2.832,0.309 -3.082,0.161 -3.262,0.067 -3.499,-0.057 -3.833,-0.212 -4.281,-0.33 -4.666,-0.431 -5.03,-0.468 -5.344,-0.468 l -0.16,0 c -0.669,0 -1.356,0.171 -2.041,0.514 -0.254,0.127 -0.532,0.304 -0.813,0.535 -0.296,0.244 -0.52,0.483 -0.679,0.688 -0.174,0.224 -0.312,0.441 -0.421,0.634 -0.118,0.209 -0.243,0.465 -0.345,0.77 -0.162,0.488 -0.242,0.957 -0.242,1.399 l 0,0.176 c 0,0.67 0.172,1.354 0.515,2.041 0.126,0.252 0.303,0.531 0.535,0.813 0.244,0.296 0.484,0.518 0.688,0.677 0.224,0.175 0.441,0.313 0.634,0.422 0.21,0.118 0.465,0.243 0.77,0.345 0.488,0.164 0.957,0.241 1.399,0.241 m -21.979,-2.349 -4.744,0 0,-1.259 3.103,0 c 0.08,0 0.145,-0.065 0.145,-0.146 l 0,-1.741 c 0,-0.081 -0.065,-0.145 -0.145,-0.145 l -3.103,0 0,-1.26 4.744,0 c 0.081,0 0.146,-0.065 0.146,-0.145 l 0,-1.742 c 0,-0.08 -0.065,-0.145 -0.146,-0.145 l -5.76,0 -0.871,0 c -0.08,0 -0.145,0.065 -0.145,0.145 l 0,0.871 0,6.583 0,0.871 c 0,0.08 0.065,0.145 0.145,0.145 l 0.871,0 1.157,0 2.363,0.86 c 0.064,0.024 0.135,-0.01 0.158,-0.073 l 0.263,-0.723 c 0.008,-0.021 0.01,-0.043 0.006,-0.064 l 1.813,0 c 0.081,0 0.146,-0.065 0.146,-0.145 l 0,-1.742 c 0,-0.08 -0.065,-0.145 -0.146,-0.145 m -15.87,0 -4.744,0 0,-1.259 3.103,0 c 0.08,0 0.145,-0.065 0.145,-0.146 l 0,-1.741 c 0,-0.081 -0.065,-0.145 -0.145,-0.145 l -3.103,0 0,-1.26 4.744,0 c 0.08,0 0.145,-0.065 0.145,-0.145 l 0,-1.742 c 0,-0.08 -0.065,-0.145 -0.145,-0.145 l -5.76,0 -0.871,0 c -0.08,0 -0.145,0.065 -0.145,0.145 l 0,0.871 0,6.583 0,0.871 c 0,0.08 0.065,0.145 0.145,0.145 l 0.871,0 1.156,0 2.364,0.86 c 0.064,0.024 0.135,-0.01 0.158,-0.073 l 0.263,-0.723 c 0.008,-0.021 0.009,-0.043 0.006,-0.064 l 1.813,0 c 0.08,0 0.145,-0.065 0.145,-0.145 l 0,-1.742 c 0,-0.08 -0.065,-0.145 -0.145,-0.145 m 19.489,2.025 1.741,0 2.418,0 c 0.08,0 0.145,-0.065 0.145,-0.145 l 0,-1.74 c 0,-0.08 -0.065,-0.145 -0.145,-0.145 l -2.273,0 0,-5.563 0,-0.87 c 0,-0.08 -0.065,-0.145 -0.145,-0.145 l -1.741,0 c -0.08,0 -0.145,0.065 -0.145,0.145 l 0,0.87 0,5.563 -2.273,0 c -0.08,0 -0.145,0.065 -0.145,0.145 l 0,1.74 c 0,0.08 0.065,0.145 0.145,0.145 l 2.418,0 z m -31.595,0 1.741,0 2.418,0 c 0.08,0 0.145,-0.065 0.145,-0.145 l 0,-1.74 c 0,-0.08 -0.065,-0.145 -0.145,-0.145 l -2.274,0 0,-5.563 0,-0.87 c 0,-0.08 -0.064,-0.145 -0.144,-0.145 l -1.741,0 c -0.08,0 -0.145,0.065 -0.145,0.145 l 0,0.87 0,5.563 -2.274,0 c -0.08,0 -0.145,0.065 -0.145,0.145 l 0,1.74 c 0,0.08 0.065,0.145 0.145,0.145 l 2.419,0 z m 15.32,-0.139 0,-6.426 4.771,0 c 0.081,0 0.146,-0.065 0.146,-0.145 l 0,-1.752 c 0,-0.081 -0.065,-0.146 -0.146,-0.146 l -5.792,0 -0.876,0 c -0.081,0 -0.146,0.065 -0.146,0.146 l 0,0.876 0,7.447 c 0,0.08 0.065,0.146 0.146,0.146 l 1.751,0 c 0.081,0 0.146,-0.066 0.146,-0.146 m 23.55,-0.006 0,-0.87 0,-2.274 3.725,0 0,2.274 0,0.87 c 0,0.08 0.065,0.145 0.145,0.145 l 1.741,0 c 0.08,0 0.144,-0.065 0.144,-0.145 l 0,-0.87 0,-6.578 0,-0.87 c 0,-0.08 -0.064,-0.145 -0.144,-0.145 l -1.741,0 c -0.08,0 -0.145,0.065 -0.145,0.145 l 0,0.87 0,2.274 -3.725,0 0,-2.274 0,-0.87 c 0,-0.08 -0.065,-0.145 -0.145,-0.145 l -1.74,0 c -0.08,0 -0.145,0.065 -0.145,0.145 l 0,0.87 0,6.578 0,0.87 c 0,0.08 0.065,0.145 0.145,0.145 l 1.74,0 c 0.08,0 0.145,-0.065 0.145,-0.145"
             id="path394"
             style="fill:#31211c;fill-opacity:1;fill-rule:nonzero;stroke:none" />
        </g>
        <g
           transform="translate(25.5032,678.0834)"
           id="g396">
          <path
             d="m 0,0 0,-1.151 c 0,-0.066 -0.054,-0.12 -0.12,-0.12 l -5.266,0 0,-2.235 3.458,0 c 0.066,0 0.12,-0.054 0.12,-0.12 l 0,-1.151 c 0,-0.066 -0.054,-0.12 -0.12,-0.12 l -3.458,0 0,-3.453 c 0,-0.066 -0.054,-0.12 -0.12,-0.12 l -1.151,0 c -0.066,0 -0.12,0.054 -0.12,0.12 l 0,8.35 c 0,0.066 0.054,0.12 0.12,0.12 l 6.537,0 C -0.054,0.12 0,0.066 0,0"
             id="path398"
             style="fill:#31211c;fill-opacity:1;fill-rule:evenodd;stroke:none" />
        </g>
        <g
           transform="translate(12.0359,673.6879)"
           id="g400">
          <path
             d="M 0,0 2.968,0 1.697,3.13 1.272,3.13 0,0 z m -1.736,-4.075 -1.233,0 -0.001,0 c -0.015,0 -0.031,0.003 -0.045,0.009 -0.061,0.025 -0.091,0.095 -0.066,0.156 L 0.166,4.082 0.31,4.435 c 0.016,0.047 0.06,0.081 0.112,0.081 l 2.123,0 10e-4,0 c 0.047,0 0.092,-0.029 0.111,-0.075 L 2.546,4.396 2.657,4.441 6.047,-3.905 c 0.007,-0.015 0.011,-0.032 0.011,-0.05 0,-0.066 -0.053,-0.12 -0.119,-0.12 l -1.234,0 -0.001,0 C 4.657,-4.075 4.612,-4.046 4.593,-4 L 4.704,-3.955 4.593,-4 l -1.062,2.615 -4.094,0 -1.06,-2.609 c -0.016,-0.047 -0.06,-0.081 -0.113,-0.081"
             id="path402"
             style="fill:#31211c;fill-opacity:1;fill-rule:evenodd;stroke:none" />
        </g>
        <g
           transform="translate(27.572,669.5994)"
           id="g404">
          <path
             d="m 0,0 -1.146,0 c -0.066,0 -0.119,0.053 -0.119,0.119 l 0,8.366 c 0,0.066 0.053,0.119 0.119,0.119 l 1.753,0 0.004,0 c 0.036,0 0.072,-0.016 0.095,-0.048 L 0.611,8.485 0.706,8.556 3.037,5.448 l 2.325,3.1 c 0.021,0.034 0.059,0.056 0.101,0.056 l 1.757,0 c 0.066,0 0.119,-0.053 0.119,-0.119 l 0,-8.366 C 7.339,0.053 7.286,0 7.22,0 L 6.074,0 C 6.008,0 5.955,0.053 5.955,0.119 l 0,6.928 L 3.708,4.051 C 3.687,4.017 3.649,3.994 3.606,3.994 l -1.135,0 -0.003,0 c -0.036,0 -0.072,0.017 -0.096,0.048 L 2.468,4.114 2.373,4.042 0.119,7.047 l 0,-6.928 C 0.119,0.053 0.066,0 0,0"
             id="path406"
             style="fill:#31211c;fill-opacity:1;fill-rule:evenodd;stroke:none" />
        </g>
        <g
           transform="translate(115.8337,679.6273)"
           id="g408">
          <path
             d="m 0,0 c -0.157,-0.074 -0.407,-0.154 -0.677,-0.235 0.075,-0.005 0.15,-0.012 0.224,-0.02 0.098,-0.008 0.191,-0.015 0.278,-0.022 0.347,0.073 0.705,0.126 1.101,0.167 0,-0.001 0.068,0.007 0.068,0.007 -0.006,-0.003 -0.071,-0.022 -0.071,-0.02 -0.375,-0.073 -0.674,-0.118 -0.955,-0.165 0.079,-0.006 0.154,-0.011 0.223,-0.016 0.228,0.027 0.463,0.045 0.713,0.055 0,-0.002 0.083,0.002 0.083,0.002 C 0.979,-0.248 0.902,-0.261 0.902,-0.26 0.717,-0.282 0.548,-0.3 0.389,-0.318 1.507,-0.394 1.239,-0.35 2.787,-0.663 2.103,-0.582 1.582,-0.48 0.871,-0.462 0.716,-0.461 0.567,-0.464 0.422,-0.47 c 0.973,-0.073 1.92,-0.392 2.71,-1.029 0.174,-0.137 0.332,-0.29 0.477,-0.456 l 0.012,0.011 c -0.149,0.159 -0.31,0.308 -0.489,0.445 0.155,-0.126 0.314,-0.282 0.47,-0.463 L 3.593,-1.971 3.617,-1.996 c 0.037,-0.038 0.073,-0.077 0.109,-0.115 0.768,-0.962 1.462,-2.52 1.546,-4.155 -0.141,0.892 -0.385,1.629 -0.86,2.424 -0.338,0.568 -0.77,1.248 -1.341,1.609 L 3.094,-2.21 3.07,-2.185 c -0.584,0.611 -1.231,0.937 -2.041,1.152 -0.403,0.107 -0.777,0.163 -1.151,0.177 0.3,-0.007 0.604,-0.037 0.928,-0.091 l 0.034,-0.006 0.012,0.069 -0.034,0.006 c -0.176,0.032 -0.345,0.057 -0.512,0.075 l 0.003,0.07 -0.016,0 0.001,0.05 -0.035,0.001 C -0.188,-0.674 -0.6,-0.702 -1.023,-0.775 -1.162,-0.793 -1.3,-0.815 -1.441,-0.843 -2.262,-1.007 -2.928,-1.254 -3.629,-1.692 -3.661,-1.711 -3.693,-1.73 -3.725,-1.75 -4.419,-2.184 -4.943,-2.647 -5.342,-3.379 -5.405,-3.495 -5.46,-3.614 -5.508,-3.736 c 0.031,0.21 0.076,0.417 0.145,0.62 0.309,0.731 0.734,1.303 1.341,1.812 0.027,0.022 0.143,0.123 0.059,-0.085 0,0 -0.053,-0.075 -0.056,-0.072 -0.425,-0.538 -0.751,-0.874 -1.057,-1.439 0.4,0.623 1.032,1.174 1.791,1.594 0.231,0.156 0.474,0.302 0.61,0.334 -0.025,-0.017 -0.067,-0.046 -0.065,-0.064 0.095,0.042 0.192,0.082 0.289,0.119 0.18,0.096 0.365,0.184 0.559,0.269 -0.014,0.012 -0.036,0.024 -0.068,0.034 -0.014,0.117 0.199,0.225 0.278,0.262 0.284,0.111 0.587,0.136 0.888,0.124 C -0.537,-0.146 -0.277,-0.072 0,0 M 3.821,-2.215 C 4.087,-2.566 4.308,-2.954 4.51,-3.339 4.984,-4.34 5.197,-5.159 5.287,-6.119 5.294,-6.235 5.299,-6.347 5.301,-6.458 5.32,-6.595 5.334,-6.732 5.342,-6.87 5.348,-6.972 5.351,-7.071 5.353,-7.168 5.381,-6.837 5.38,-6.491 5.356,-6.114 5.326,-5.801 5.284,-5.51 5.227,-5.229 L 5.164,-4.995 C 5.135,-4.884 5.086,-4.728 5.071,-4.61 4.943,-4.183 4.773,-3.765 4.552,-3.319 4.498,-3.218 4.444,-3.118 4.388,-3.02 4.213,-2.765 4.039,-2.51 3.984,-2.401 3.931,-2.338 3.876,-2.276 3.821,-2.215 M 5.22,-7.617 C 5.132,-8.111 4.969,-8.589 4.709,-9.113 4.659,-9.203 4.608,-9.291 4.556,-9.375 4.515,-9.497 4.47,-9.613 4.42,-9.725 c 0.125,0.178 0.244,0.368 0.359,0.576 0.144,0.291 0.258,0.568 0.347,0.842 0.05,0.229 0.08,0.457 0.094,0.69 m -0.973,-2.21 c -0.395,-0.522 -0.846,-0.921 -1.392,-1.276 -0.097,-0.082 -0.197,-0.161 -0.3,-0.236 -0.087,-0.069 -0.177,-0.135 -0.269,-0.199 0.646,0.351 1.174,0.721 1.629,1.196 0.12,0.16 0.231,0.331 0.332,0.515 m -1.354,-1.244 c 0.589,0.402 1.05,0.854 1.404,1.338 0.081,0.156 0.156,0.322 0.224,0.498 l 0.022,0.057 c 0.093,0.311 0.188,0.622 0.252,0.941 0.046,0.291 0.062,0.585 0.061,0.88 l 0,0.034 0.066,0.004 0.004,-0.033 C 4.96,-7.648 4.923,-7.959 4.864,-8.25 4.827,-8.488 4.769,-8.72 4.696,-8.95 4.669,-9.034 4.641,-9.118 4.61,-9.201 L 4.592,-9.26 C 4.587,-9.275 4.583,-9.291 4.578,-9.306 c 0.356,0.609 0.561,1.257 0.65,1.913 0.004,0.295 -0.017,0.6 -0.058,0.928 -0.121,0.957 -0.375,1.732 -0.855,2.57 C 4.12,-3.553 3.91,-3.186 3.629,-2.906 3.545,-2.822 3.457,-2.742 3.371,-2.659 3.24,-2.533 3.116,-2.402 2.995,-2.267 L 2.836,-2.091 2.928,-2.147 C 2.899,-2.119 2.869,-2.092 2.839,-2.066 L 2.805,-2.108 2.752,-2.064 c -0.539,0.442 -1.085,0.679 -1.76,0.839 -0.34,0.08 -0.657,0.124 -0.971,0.138 l 0,-0.003 c 0.254,-0.014 0.51,-0.048 0.776,-0.102 L 0.831,-1.199 0.817,-1.268 0.783,-1.261 c -0.734,0.149 -1.393,0.134 -2.127,0.009 -0.762,-0.13 -1.381,-0.347 -2.035,-0.726 -0.045,-0.027 -0.09,-0.055 -0.135,-0.083 -0.643,-0.407 -1.115,-0.82 -1.48,-1.498 -0.529,-0.985 -0.394,-2.553 -0.533,-3.662 -0.06,-0.481 -0.14,-0.899 -0.321,-1.311 -0.061,-0.144 -0.134,-0.286 -0.223,-0.431 -0.164,-0.268 -0.336,-0.456 -0.586,-0.646 -0.295,-0.224 -0.575,-0.346 -0.925,-0.458 -0.058,-0.019 -0.1,-0.041 -0.145,-0.083 -0.046,-0.041 -0.074,-0.082 -0.096,-0.138 -0.023,-0.057 -0.03,-0.103 -0.027,-0.164 0.004,-0.061 0.017,-0.108 0.047,-0.161 0.016,-0.028 0.032,-0.056 0.049,-0.082 0.199,-0.184 0.462,-0.364 0.775,-0.534 0.109,-0.061 0.222,-0.118 0.34,-0.176 0.862,-0.403 1.662,-0.63 2.594,-0.812 1.68,-0.287 3.217,-0.336 4.772,0.084 0.447,0.159 0.887,0.366 1.32,0.63 1.019,0.622 1.736,1.294 2.134,2.444 l 0.012,0.034 c 0.081,0.345 0.175,0.7 0.219,1.051 0.034,0.41 0.001,0.788 -0.055,1.194 L 4.352,-6.746 4.42,-6.735 4.426,-6.769 C 4.503,-7.181 4.535,-7.564 4.482,-7.981 4.477,-8.044 4.469,-8.107 4.462,-8.17 4.428,-8.473 4.359,-8.757 4.26,-9.045 L 4.252,-9.08 C 4.235,-9.152 4.216,-9.223 4.194,-9.291 L 4.227,-9.307 4.213,-9.338 C 4.139,-9.508 4.058,-9.669 3.967,-9.822 3.786,-10.15 3.548,-10.43 3.271,-10.703 3.151,-10.835 3.025,-10.956 2.893,-11.071 m -3.047,10.07 C 0.201,-1.006 0.557,-1.05 0.94,-1.14 0.557,-1.054 0.201,-1.013 -0.154,-1.01 l 0,0.009 z"
             id="path410"
             style="fill:#feca00;fill-opacity:1;fill-rule:evenodd;stroke:none" />
        </g>
        <g
           transform="translate(127.1371,678.8173)"
           id="g412">
          <path
             d="m 0,0 c -0.153,0.299 -0.423,0.513 -0.79,0.487 -1.365,-0.097 -3.571,-1.462 -4.211,-2.833 -0.333,-0.714 0.002,-1.187 0.725,-1.135 0.692,0.051 1.897,0.552 2.656,0.744 C 0.034,-2.319 0.999,-1.954 0,0"
             id="path414"
             style="fill:#94c118;fill-opacity:1;fill-rule:evenodd;stroke:none" />
        </g>
        <g
           transform="translate(106.5498,681.1591)"
           id="g416">
          <path
             d="M 0,0 C 1.015,-1.004 2.442,-2.431 3.955,-2.492 4.342,-2.507 3.884,-1.699 3.346,-0.303 2.889,0.883 2.806,1.491 1.965,2.487 0.977,3.656 0.148,2.891 -0.33,1.741 -0.521,1.28 -0.358,0.354 0,0"
             id="path418"
             style="fill:#00505a;fill-opacity:1;fill-rule:evenodd;stroke:none" />
        </g>
        <g
           transform="translate(110.4289,664.3424)"
           id="g420">
          <path
             d="M 0,0 C 0.15,1.037 0.292,2.511 -1.425,2.991 -1.83,3.105 -2.289,2.279 -2.441,2.056 -2.84,1.467 -3.297,0.865 -3.699,0.283 c -0.277,-0.4 -1.051,-1.788 -0.567,-2.251 0.534,-0.511 2.774,0.574 3.21,0.866 C -0.739,-0.889 -0.052,-0.352 0,0"
             id="path422"
             style="fill:#a30054;fill-opacity:1;fill-rule:evenodd;stroke:none" />
        </g>
        <g
           transform="translate(121.4369,663.6349)"
           id="g424">
          <path
             d="M 0,0 C -0.071,0.583 -0.824,2.94 -1.181,3.185 -1.942,3.708 -4.197,2.984 -4.065,2.541 -3.54,0.792 0.641,-5.248 0,0"
             id="path426"
             style="fill:#ec6200;fill-opacity:1;fill-rule:evenodd;stroke:none" />
        </g>
        <g
           transform="translate(117.2372,680.2109)"
           id="g428">
          <path
             d="M 0,0 C 0.695,-0.102 2.16,3.496 2.257,4.217 2.424,5.467 1.266,6.32 -0.169,6.39 -1.53,6.456 -1.784,0.263 0,0"
             id="path430"
             style="fill:#00b2b9;fill-opacity:1;fill-rule:evenodd;stroke:none" />
        </g>
      </g>
    </g>
  </g>
</svg>
